<svg xmlns="http://www.w3.org/2000/svg" version="1.1" xmlns:xlink="http://www.w3.org/1999/xlink" xmlns:svgjs="http://svgjs.dev/svgjs" width="1000" height="1000" viewBox="0 0 1000 1000"><rect width="1000" height="1000" fill="#000000"></rect><g transform="matrix(0.7,0,0,0.7,149.5757661840667,282.1265587044535)"><svg viewBox="0 0 396 247" data-background-color="#331e6d" preserveAspectRatio="xMidYMid meet" height="623" width="1000" xmlns="http://www.w3.org/2000/svg" xmlns:xlink="http://www.w3.org/1999/xlink"><defs></defs><g id="tight-bounds" transform="matrix(1,0,0,1,0.23999513015655793,-0.09999999999999432)"><svg viewBox="0 0 395.52 247.2" height="247.2" width="395.52"><g><svg></svg></g><g><svg viewBox="0 0 395.52 247.2" height="247.2" width="395.52"><g><path d="M135.016 247.2c-19.866 0-35.394-2.798-46.586-8.394-11.192-5.596-19.026-13.99-23.503-25.182-4.477-11.192-6.715-25.042-6.715-41.549v-20.862h55.399v25.898c0 9.513 2.462 16.844 7.387 21.992 4.868 5.204 13.598 7.806 26.189 7.806h17.207c26.86 0 49.524-0.224 67.991-0.671 18.467-0.392 33.715-0.727 45.746-1.007v-54.018l54.98 0v78.36l4.197 8.813c0 2.238-5.876 4.253-17.627 6.044-11.751 1.847-31.617 2.77-59.596 2.77zM58.212 78.483c0-26.86 6.016-46.67 18.046-59.429 12.031-12.703 31.617-19.054 58.758-19.054h126.328c19.306 0 34.079 1.035 44.319 3.106 10.185 2.126 15.277 4.309 15.277 6.547l-8.394 34.835c-4.757-0.839-18.802-1.763-42.137-2.77-23.391-0.951-57.33-1.427-101.818-1.427h-21.404c-22.384 0-33.576 9.933-33.576 29.798l0 25.898-55.399 0zM197.97 152.769v-1.556h20.378z" fill="#ffcf31" data-fill-palette-color="tertiary"></path></g><g transform="matrix(1,0,0,1,0,102.22503277861824)"><svg viewBox="0 0 395.52 42.74993444276349" height="42.74993444276349" width="395.52"><g><svg viewBox="0 0 395.52 42.74993444276349" height="42.74993444276349" width="395.52"><g><svg viewBox="0 0 395.52 42.74993444276349" height="42.74993444276349" width="395.52"><g><svg viewBox="0 0 395.52 42.74993444276349" height="42.74993444276349" width="395.52"><g><svg viewBox="0 0 395.52 42.74993444276349" height="42.74993444276349" width="395.52"><g><svg viewBox="0 0 395.52 42.74993444276349" height="42.74993444276349" width="395.52"><g transform="matrix(1,0,0,1,0,0)"><svg width="395.52" viewBox="3.5 -31.649999618530273 297.42999267578125 32.150001525878906" height="42.74993444276349" data-palette-color="#ffcf31"><path d="M27.55 0L12.65 0Q9.1 0 7.1-1 5.1-2 4.3-4 3.5-6 3.5-8.95L3.5-8.95 3.5-20.1Q3.5-24.9 5.65-27.18 7.8-29.45 12.65-29.45L12.65-29.45 27.7-29.45Q31.15-29.45 32.98-29.08 34.8-28.7 34.8-28.3L34.8-28.3 33.8-24.15Q32.95-24.3 28.78-24.48 24.6-24.65 16.65-24.65L16.65-24.65 14.1-24.65Q10.1-24.65 10.1-21.1L10.1-21.1 10.1-8.35Q10.1-6.65 10.98-5.73 11.85-4.8 14.1-4.8L14.1-4.8 16.15-4.8Q20.95-4.8 24.25-4.88 27.55-4.95 29.7-5L29.7-5 29.7-11.8 26.7-11.75 20.15-11.25 20.15-16.15 36.25-16.15 36.25-2.1 36.75-1.05Q36.75-0.65 34.65-0.33 32.55 0 27.55 0L27.55 0ZM51.7 0L49.2 0Q45.4 0 43.7-1.78 42-3.55 42-6.65L42-6.65Q42-9.9 43.77-11.65 45.55-13.4 49.2-13.4L49.2-13.4 51.75-13.4Q55.5-13.4 58.5-13.2 61.5-13 63.45-12.8L63.45-12.8 63.45-16.1Q63.45-16.55 63.35-17.03 63.25-17.5 62.75-17.8 62.25-18.1 61.05-18.1L61.05-18.1 58.55-18.1Q53.1-18.1 49.45-17.93 45.8-17.75 44.5-17.6L44.5-17.6 43.95-21.4Q43.95-22.1 47.75-22.25 51.55-22.4 60.45-22.4L60.45-22.4 62.95-22.4Q65.45-22.4 66.8-21.7 68.15-21 68.72-19.95 69.3-18.9 69.42-17.82 69.55-16.75 69.55-16L69.55-16 69.55 0 65.45 0 63.5-1Q61.4-0.65 58.45-0.33 55.5 0 51.7 0L51.7 0ZM50.5-4.3L50.5-4.3 61.95-4.3Q63.05-4.3 63.25-4.5 63.45-4.7 63.45-5.75L63.45-5.75 63.45-9.6 50.5-9.6Q49.15-9.6 48.62-8.95 48.1-8.3 48.1-6.9L48.1-6.9Q48.1-5.5 48.7-4.9 49.3-4.3 50.5-4.3ZM81.4 0L75.3 0 75.3-22.4 79.4-22.4 80.65-21.8Q82.1-22.05 84.2-22.23 86.3-22.4 89.2-22.4L89.2-22.4 91.7-22.4Q93.15-22.4 94.5-22.03 95.85-21.65 96.5-20.95L96.5-20.95Q97.8-21.6 100.1-22 102.4-22.4 106.1-22.4L106.1-22.4 108.6-22.4Q111.1-22.4 112.45-21.7 113.8-21 114.37-19.95 114.95-18.9 115.07-17.82 115.2-16.75 115.2-16L115.2-16 115.2 0 109.1 0 109.1-16.1Q109.1-18.1 106.7-18.1L106.7-18.1 99.7-18.1Q98.9-18.1 98.6-17.9 98.3-17.7 98.3-17L98.3-17 98.3 0 92.2 0 92.2-16.1Q92.2-18.1 89.8-18.1L89.8-18.1 82.9-18.1Q81.95-18.1 81.67-17.93 81.4-17.75 81.4-17L81.4-17 81.4 0ZM137.09 0L127.04 0Q124.54 0 123.19-0.65 121.84-1.3 121.27-2.3 120.69-3.3 120.57-4.4 120.44-5.5 120.44-6.4L120.44-6.4 120.44-16Q120.44-16.75 120.57-17.82 120.69-18.9 121.27-19.95 121.84-21 123.22-21.7 124.59-22.4 127.04-22.4L127.04-22.4 137.79-22.4Q141.09-22.4 142.97-21.78 144.84-21.15 145.62-19.75 146.39-18.35 146.39-16L146.39-16 146.39-8.6 137.64-8.6Q133.14-8.6 130.32-8.8 127.49-9 126.54-9.05L126.54-9.05 126.54-6.3Q126.49-4.3 128.94-4.3L128.94-4.3 131.49-4.3Q134.19-4.3 136.77-4.38 139.34-4.45 141.49-4.58 143.64-4.7 144.94-4.8L144.94-4.8 146.94-1.55Q146.94 0 137.09 0L137.09 0ZM126.54-16.1L126.54-12.9 140.29-12.9 140.29-16.1Q140.29-17.1 140.07-17.5 139.84-17.9 138.74-18 137.64-18.1 134.99-18.1L134.99-18.1 128.94-18.1Q126.54-18.1 126.54-16.1L126.54-16.1ZM158.04 0L151.94 0 151.94-22.4 156.04-22.4 157.94-21.4Q159.24-22.1 160.74-22.5 162.24-22.9 164.54-22.9L164.54-22.9Q168.19-22.9 170.47-22.1 172.74-21.3 173.49-20.9L173.49-20.9 171.74-16.55Q171.14-16.85 169.77-17.32 168.39-17.8 166.54-18.2 164.69-18.6 162.49-18.6L162.49-18.6 161.94-18.6Q159.54-18.6 158.82-17.65 158.09-16.7 158.04-14.5L158.04-14.5 158.04 0ZM196.79 0L182.64 0Q179.29 0 177.89-0.35 176.49-0.7 176.49-1.05L176.49-1.05 177.99-4.8Q179.44-4.65 183.31-4.48 187.19-4.3 192.89-4.3L192.89-4.3 195.39-4.3Q196.64-4.3 196.96-4.98 197.29-5.65 197.29-6.8L197.29-6.8Q197.29-7.95 196.91-8.65 196.54-9.35 195.39-9.35L195.39-9.35 183.09-9.35Q179.59-9.35 178.04-10.68 176.49-12 176.49-14.65L176.49-14.65 176.49-16.65Q176.49-17.35 176.64-18.3 176.79-19.25 177.39-20.2 177.99-21.15 179.34-21.78 180.69-22.4 183.09-22.4L183.09-22.4 196.89-22.4Q199.89-22.4 201.14-22.05 202.39-21.7 202.39-21.35L202.39-21.35 201.89-17.6Q200.44-17.75 196.54-17.93 192.64-18.1 186.99-18.1L186.99-18.1 184.49-18.1Q183.24-18.1 182.91-17.43 182.59-16.75 182.59-15.85L182.59-15.85Q182.59-14.9 182.91-14.28 183.24-13.65 184.49-13.65L184.49-13.65 196.79-13.65Q200.19-13.65 201.79-12.25 203.39-10.85 203.39-8.7L203.39-8.7 203.39-5.75Q203.39-4.85 203.26-3.85 203.14-2.85 202.54-1.98 201.94-1.1 200.59-0.55 199.24 0 196.79 0L196.79 0ZM213.19 0L205.89 0 220.54-29.4 230.39-29.4 244.99 0 237.29 0 234.34-6.35 216.44-6.35 213.19 0ZM225.14-24.9L218.24-11.25 232.49-11.25 225.64-24.9 225.14-24.9ZM254.08 0L247.98 0 247.98-22.4 252.08-22.4 253.98-21.4Q255.28-22.1 256.78-22.5 258.28-22.9 260.58-22.9L260.58-22.9Q264.23-22.9 266.51-22.1 268.78-21.3 269.53-20.9L269.53-20.9 267.78-16.55Q267.18-16.85 265.81-17.32 264.43-17.8 262.58-18.2 260.73-18.6 258.53-18.6L258.53-18.6 257.98-18.6Q255.58-18.6 254.86-17.65 254.13-16.7 254.08-14.5L254.08-14.5 254.08 0ZM296.98 0.5L296.98 0.5Q294.88 0.5 293.41 0 291.93-0.5 290.28-2.15L290.28-2.15Q290.13-2.3 289.48-2.95 288.83-3.6 288.06-4.4 287.28-5.2 286.63-5.85 285.98-6.5 285.78-6.7L285.78-6.7Q284.53-7.95 283.41-8.65 282.28-9.35 280.63-9.35L280.63-9.35Q279.53-9.35 279.33-9.15 279.13-8.95 279.13-7.8L279.13-7.8 279.13 0 273.03 0 273.03-31.65 279.13-31.65 279.13-13.65 280.73-13.65Q281.63-13.65 282.33-14.35L282.33-14.35Q282.78-14.8 284.03-16.15 285.28-17.5 286.86-19.2 288.43-20.9 289.73-22.35L289.73-22.35 297.08-22.35 296.28-20.8Q295.13-19.6 293.78-18.28 292.43-16.95 291.16-15.73 289.88-14.5 288.83-13.58 287.78-12.65 287.23-12.35L287.23-12.35Q288.73-11.55 289.93-10.53 291.13-9.5 292.53-8.22 293.93-6.95 295.88-5.35L295.88-5.35Q297.63-3.95 299.13-3.73 300.63-3.5 300.93-3.5L300.93-3.5 300.03 0Q299.53 0.15 298.68 0.33 297.83 0.5 296.98 0.5Z" opacity="1" transform="matrix(1,0,0,1,0,0)" fill="#ffffff" class="undefined-text-0" data-fill-palette-color="primary" id="text-0"></path></svg></g></svg></g></svg></g></svg></g></svg></g></svg></g></svg></g></svg></g></svg><rect width="395.52" height="247.2" fill="none" stroke="none" visibility="hidden"></rect></g></svg></g></svg>